<svg class="logo-svg" viewBox="0 0 400 150" fill="none" xmlns="http://www.w3.org/2000/svg">
    <defs>
        <linearGradient id="gradientQR" x1="0%" y1="0%" x2="100%" y2="100%">
            <stop offset="0%" style="stop-color:#667eea;stop-opacity:1" />
            <stop offset="100%" style="stop-color:#764ba2;stop-opacity:1" />
        </linearGradient>
        <linearGradient id="gradientEye" x1="0%" y1="0%" x2="100%" y2="100%">
            <stop offset="0%" style="stop-color:#38a3a5;stop-opacity:1" />
            <stop offset="100%" style="stop-color:#57cc99;stop-opacity:1" />
        </linearGradient>
     </defs>

    <!-- Base for the 'Q' with QR pattern hints -->
    <rect x="20" y="20" width="110" height="110" rx="15" fill="url(#gradientQR)"/>

    <!-- QR code-like patterns within the 'Q' area -->
    <rect x="35" y="35" width="20" height="20" rx="3" fill="white" opacity="0.8"/>
    <rect x="65" y="35" width="20" height="20" rx="3" fill="white" opacity="0.8"/>
    <rect x="35" y="65" width="20" height="20" rx="3" fill="white" opacity="0.8"/>
    <rect x="95" y="65" width="10" height="10" rx="2" fill="white" opacity="0.6"/>
    <rect x="65" y="95" width="20" height="20" rx="3" fill="white" opacity="0.8"/>

    <!-- 'Eye' / Lens / Hidden data symbol inside the QR area -->
    <circle cx="75" cy="75" r="20" fill="url(#gradientEye)" opacity="0.9"/>
    <circle cx="75" cy="75" r="8" fill="#ffffff" opacity="0.95"/>
    <path d="M75 55 L85 65 L75 95 L65 65 Z" fill="white" opacity="0.3"/> <!-- Subtle lens flare/light effect -->

    <!-- Text "QRMArk" -->
    <text x="150" y="85" font-family="Inter, sans-serif" font-size="60" font-weight="800" fill="#2d3748">
        Q<tspan fill="url(#gradientQR)">R</tspan>M<tspan fill="url(#gradientEye)">Ark</tspan>
    </text>

    <!-- Subtle underline/marker for "Ark" to signify marking an image -->
    <rect x="280" y="95" width="100" height="6" rx="3" fill="#57cc99" opacity="0.7"/>
    <rect x="280" y="105" width="100" height="2" rx="1" fill="#764ba2" opacity="0.5"/>
</svg>